<svg xmlns:rdf="http://www.w3.org/1999/02/22-rdf-syntax-ns#" xmlns="http://www.w3.org/2000/svg" height="200" width="200" version="1.1" xmlns:cc="http://creativecommons.org/ns#" xmlns:dc="http://purl.org/dc/elements/1.1/" viewBox="0 0 200 199.99999">
 <g fill-rule="evenodd" transform="translate(0 -852.36)" stroke="#fff">
  <path stroke-linejoin="round" fill="#e74594" stroke-linecap="round" stroke-width="3.8702" d="m188.83 965.52a84.97 82.556 0 0 1 -84.469 82.555 84.97 82.556 0 0 1 -85.466 -81.581 84.97 82.556 0 0 1 83.461 -83.517 84.97 82.556 0 0 1 86.45 80.595"/>
  <path d="m118.82 856.05c-23.429 2.4608-22.201 31.135-51.821 7.7722-6.4098-5.0556 14.197 24.096 7.3764 22.698-25.4-15.913-28.447-13.386-45.83-1.244 26.377 7.6936 20 5.1902 26.377 7.6936 14.431 8.4936-5.1969 31.349-3.0638 38.323-0.16643 3.4213 10.758-4.6434 11.871-6.5503 13.641-26.191 18.138-17.501 18.36-16.953 2.5558 9.2362 4.043 19.003 10.101 26.829 2.0717 2.8405 6.7228 10.591 2.9229 3.3046-2.0053-9.2629 1.5221-27.971-2.5182-36.835l2.5515 2.3312c4.0365 5.8443 10.897 7.1056 14.825 13.019 4.2932-18.3-4.6748-16.708-9.2811-19.523-14.966-15.951 31.691 12.446 36.991 15.504 1.3554-5.2174-5.5717-10.222-8.0848-15.58-4.5053-8.7998-5.9595-8.5471-14.187-10.313-2.6181-0.44574-18.033 0.99322 3.0023-2.3184 9.0512 1.1053 26.028-13.422 30.416-19.213-75.882 22.241-56.233 36.452-30.008-8.9436z" stroke-width="4.5906" fill="#964da3"/>
 </g>
</svg>
