<svg xmlns:rdf="http://www.w3.org/1999/02/22-rdf-syntax-ns#" xmlns="http://www.w3.org/2000/svg" viewBox="0 0 100 40.000001" height="40" width="100" version="1.1" xmlns:cc="http://creativecommons.org/ns#" xmlns:dc="http://purl.org/dc/elements/1.1/">
 <g transform="translate(0 -1012.4)">
  <path d="m7.8291 1032.2c1.1661-8.4826 2.3322-16.194 3.4983-16.201 1.1661-0.01 2.3322 7.718 3.4982 16.201 1.1661 8.4826 2.3322 16.194 3.4983 16.2 1.1661 0.01 2.3322-7.7179 3.4982-16.2 1.1661-8.4826 2.3322-16.194 3.4983-16.201 1.1661-0.01 2.3322 7.718 3.4983 16.201 1.1661 8.4826 2.3322 16.194 3.4982 16.2 1.1661 0.01 2.3322-7.7179 3.4983-16.2 1.1661-8.4826 2.3322-16.194 3.4982-16.201 1.1661-0.01 2.3322 7.718 3.4983 16.201 1.1661 8.4826 2.3322 16.194 3.4982 16.2 1.1661 0.01 2.3322-7.7179 3.4983-16.2 1.1661-8.4826 2.3322-16.194 3.4983-16.201 1.1661-0.01 2.3322 7.718 3.4982 16.201 1.1661 8.4826 2.3322 16.194 3.4983 16.2 1.1661 0.01 2.3322-7.7179 3.4983-16.2 1.1661-8.4826 2.3322-16.194 3.4982-16.201 1.1661-0.01 2.3322 7.718 3.4983 16.201 1.1661 8.4826 2.3322 16.194 3.4982 16.2 1.1661 0.01 2.3322-7.7179 3.4983-16.2 1.1661-8.4826 2.3322-16.194 3.4982-16.201 1.1661-0.01 2.3322 7.718 3.4983 16.201 1.1661 8.4826 2.3322 16.194 3.4982 16.2 1.1661 0.01 2.3322-7.7179 3.4983-16.2" title="sin(x)" fill-rule="evenodd" stroke="#fff" stroke-linecap="square" stroke-miterlimit="4.4" stroke-width="4.7408" fill="#fff"/>
 </g>
</svg>
