<svg xmlns:rdf="http://www.w3.org/1999/02/22-rdf-syntax-ns#" xmlns="http://www.w3.org/2000/svg" viewBox="0 0 100 40.000001" height="40" width="100" version="1.1" xmlns:cc="http://creativecommons.org/ns#" xmlns:xlink="http://www.w3.org/1999/xlink" xmlns:dc="http://purl.org/dc/elements/1.1/">
 <defs>
  <radialGradient id="radialGradient4350" gradientUnits="userSpaceOnUse" cy="208.08" cx="298.57" gradientTransform="matrix(1.5203 -.36081 .27087 .29994 -460.46 1077.5)" r="66.265">
   <stop stop-color="#ff25e9" offset="0"/>
   <stop stop-color="#5000f1" stop-opacity=".80392" offset="1"/>
  </radialGradient>
 </defs>
 <g transform="translate(0 -1012.4)">
  <path d="m7.8291 1032.2c1.1661-8.4826 2.3322-16.194 3.4983-16.201 1.1661-0.01 2.3322 7.718 3.4982 16.201 1.1661 8.4826 2.3322 16.194 3.4983 16.2 1.1661 0.01 2.3322-7.7179 3.4982-16.2 1.1661-8.4826 2.3322-16.194 3.4983-16.201 1.1661-0.01 2.3322 7.718 3.4983 16.201 1.1661 8.4826 2.3322 16.194 3.4982 16.2 1.1661 0.01 2.3322-7.7179 3.4983-16.2 1.1661-8.4826 2.3322-16.194 3.4982-16.201 1.1661-0.01 2.3322 7.718 3.4983 16.201 1.1661 8.4826 2.3322 16.194 3.4982 16.2 1.1661 0.01 2.3322-7.7179 3.4983-16.2 1.1661-8.4826 2.3322-16.194 3.4983-16.201 1.1661-0.01 2.3322 7.718 3.4982 16.201 1.1661 8.4826 2.3322 16.194 3.4983 16.2 1.1661 0.01 2.3322-7.7179 3.4983-16.2 1.1661-8.4826 2.3322-16.194 3.4982-16.201 1.1661-0.01 2.3322 7.718 3.4983 16.201 1.1661 8.4826 2.3322 16.194 3.4982 16.2 1.1661 0.01 2.3322-7.7179 3.4983-16.2 1.1661-8.4826 2.3322-16.194 3.4982-16.201 1.1661-0.01 2.3322 7.718 3.4983 16.201 1.1661 8.4826 2.3322 16.194 3.4982 16.2 1.1661 0.01 2.3322-7.7179 3.4983-16.2" title="sin(x)" fill-rule="evenodd" stroke="url(#radialGradient4350)" stroke-linecap="square" stroke-miterlimit="4.4" stroke-width="4.7408" fill="#fff"/>
 </g>
</svg>
